<?xml version="1.0" encoding="UTF-8" standalone="no"?>
<!DOCTYPE svg PUBLIC "-//W3C//DTD SVG 1.1//EN" "http://www.w3.org/Graphics/SVG/1.1/DTD/svg11.dtd">
<svg xmlns="http://www.w3.org/2000/svg" version="1.1" viewBox="0.00 0.00 96.00 96.00">
<circle fill="#6ab2e4" cx="32.00" cy="24.00" r="13.93"/>
<circle fill="#6ab2e4" cx="64.00" cy="24.00" r="13.93"/>
<path fill="#6ab2e4" d="
  M 24.13 86.29
  Q 16.51 83.04 13.43 75.23
  Q 11.71 70.87 11.92 62.64
  Q 12.11 55.56 12.02 49.74
  C 11.92 43.56 16.24 41.83 21.70 41.93
  Q 30.87 42.10 41.72 41.95
  Q 42.49 41.94 42.06 42.58
  Q 40.14 45.44 40.04 48.39
  Q 39.75 57.43 39.99 67.93
  Q 40.18 76.47 44.93 82.50
  Q 45.26 82.93 44.83 83.26
  Q 34.84 90.86 24.13 86.29
  Z"
/>
<path fill="#6ab2e4" d="
  M 76.74 41.99
  A 7.29 7.29 0.0 0 1 84.03 49.28
  L 84.03 67.56
  A 20.41 19.96 90.0 0 1 64.07 87.97
  L 63.93 87.97
  A 20.41 19.96 90.0 0 1 43.97 67.56
  L 43.97 49.28
  A 7.29 7.29 0.0 0 1 51.26 41.99
  L 76.74 41.99
  Z"
/>
</svg>
