<?xml version="1.0" encoding="UTF-8" standalone="no"?>
<svg
   viewBox="0,0,256,256"
   width="26px"
   height="26px"
   version="1.1"
   id="svg8"
   sodipodi:docname="icons8-instagram-viejo.svg"
   inkscape:version="1.2.2 (732a01da63, 2022-12-09)"
   xmlns:inkscape="http://www.inkscape.org/namespaces/inkscape"
   xmlns:sodipodi="http://sodipodi.sourceforge.net/DTD/sodipodi-0.dtd"
   xmlns="http://www.w3.org/2000/svg"
   xmlns:svg="http://www.w3.org/2000/svg">
  <defs
     id="defs12" />
  <sodipodi:namedview
     id="namedview10"
     pagecolor="#ffffff"
     bordercolor="#000000"
     borderopacity="0.25"
     inkscape:showpageshadow="2"
     inkscape:pageopacity="0.0"
     inkscape:pagecheckerboard="0"
     inkscape:deskcolor="#d1d1d1"
     showgrid="false"
     inkscape:zoom="21.192308"
     inkscape:cx="12.976407"
     inkscape:cy="13.023593"
     inkscape:window-width="1366"
     inkscape:window-height="705"
     inkscape:window-x="-8"
     inkscape:window-y="-8"
     inkscape:window-maximized="1"
     inkscape:current-layer="svg8" />
  <g
     fill="#339af0"
     fill-rule="nonzero"
     stroke="none"
     stroke-width="1"
     stroke-linecap="butt"
     stroke-linejoin="miter"
     stroke-miterlimit="10"
     stroke-dasharray="none"
     stroke-dashoffset="0"
     font-family="none"
     font-weight="none"
     font-size="none"
     text-anchor="none"
     style="mix-blend-mode:normal"
     id="g6"
     transform="scale(0.61538486)">
    <g
       transform="scale(9.84615)"
       id="g4">
      <path
         d="M 4.875,0 C 2.18359,0 0,2.18359 0,4.875 v 16.25 C 0,23.81641 2.18359,26 4.875,26 h 16.25 C 23.81641,26 26,23.81641 26,21.125 V 4.875 C 26,2.18359 23.81641,0 21.125,0 Z m 0,2 h 16.25 C 22.71094,2 24,3.28906 24,4.875 V 9 H 19.90625 C 18.51953,6.61328 15.95313,5 13,5 10.04688,5 7.48047,6.61328 6.09375,9 H 2 V 4.875 C 2,3.28906 3.28906,2 4.875,2 Z M 20,3 c -0.55078,0 -1,0.44922 -1,1 v 2 c 0,0.55078 0.44922,1 1,1 h 2 c 0.55078,0 1,-0.44922 1,-1 V 4 C 23,3.44922 22.55078,3 22,3 Z m -7,4 c 1.77734,0 3.37109,0.77344 4.46875,2 0.01172,0.01172 0.02344,0.01953 0.03125,0.03125 0.04688,0.05078 0.08203,0.10547 0.125,0.15625 0.12109,0.14844 0.23438,0.30859 0.34375,0.46875 0.04297,0.0625 0.08594,0.12109 0.125,0.1875 0.16016,0.25781 0.31641,0.53125 0.4375,0.8125 0.02344,0.05078 0.04297,0.10547 0.0625,0.15625 0.05078,0.12891 0.08203,0.27344 0.125,0.40625 0.03516,0.11328 0.06641,0.23047 0.09375,0.34375 0.01953,0.07422 0.04688,0.14453 0.0625,0.21875 0.0078,0.03125 0.02344,0.0625 0.03125,0.09375 0.03125,0.16406 0.04688,0.33203 0.0625,0.5 C 18.99219,12.58203 19,12.78516 19,13 c 0,1.24219 -0.38281,2.38672 -1.03125,3.34375 -0.97266,1.4375 -2.52734,2.44141 -4.34375,2.625 C 13.42188,18.98828 13.20703,19 13,19 11.13672,19 9.47656,18.14453 8.375,16.8125 8.25391,16.66406 8.14063,16.50391 8.03125,16.34375 7.38281,15.38672 7,14.24219 7,13 c 0,-0.1875 0.01563,-0.37891 0.03125,-0.5625 0.00391,-0.01953 -0.00391,-0.04297 0,-0.0625 0.00391,-0.05469 0.02344,-0.10156 0.03125,-0.15625 0.01953,-0.14453 0.03125,-0.29297 0.0625,-0.4375 0.03125,-0.15234 0.08203,-0.28906 0.125,-0.4375 0.01172,-0.03906 0.01953,-0.08594 0.03125,-0.125 C 7.29688,11.16797 7.29688,11.11328 7.3125,11.0625 7.34766,10.95703 7.39453,10.85156 7.4375,10.75 7.44922,10.71875 7.45703,10.6875 7.46875,10.65625 7.58984,10.375 7.74609,10.10156 7.90625,9.84375 7.94531,9.77734 7.98828,9.71875 8.03125,9.65625 8.17578,9.44141 8.32813,9.22656 8.5,9.03125 8.51172,9.01953 8.51953,9.01172 8.53125,9 9.62891,7.77344 11.22266,7 13,7 Z m 0,2.1875 c -0.72656,0 -1.39062,0.21094 -1.96875,0.5625 0.17969,-0.05469 0.36719,-0.09375 0.5625,-0.09375 1.06641,0 1.9375,0.86719 1.9375,1.9375 0,1.06641 -0.87109,1.9375 -1.9375,1.9375 -1.06641,0 -1.9375,-0.87109 -1.9375,-1.9375 0,-0.19922 0.03906,-0.38281 0.09375,-0.5625 C 9.39844,11.60938 9.1875,12.27344 9.1875,13 c 0,2.10547 1.70313,3.8125 3.8125,3.8125 2.10547,0 3.8125,-1.70312 3.8125,-3.8125 0,-2.10937 -1.70703,-3.8125 -3.8125,-3.8125 z"
         id="path2" />
    </g>
  </g>
</svg>
