<?xml version="1.0" encoding="UTF-8" standalone="no"?>
<!DOCTYPE svg PUBLIC "-//W3C//DTD SVG 1.1//EN" "http://www.w3.org/Graphics/SVG/1.1/DTD/svg11.dtd">
<svg xmlns="http://www.w3.org/2000/svg" version="1.1" viewBox="0.00 0.00 96.00 96.00">
<path fill="#6ab2e4" d="
  M 11.08 0.00
  L 77.30 0.00
  Q 78.72 0.71 78.72 3.00
  Q 78.73 44.72 78.72 86.33
  A 1.96 1.96 0.0 0 1 76.76 88.28
  L 11.74 88.28
  A 2.11 2.11 0.0 0 1 9.63 86.17
  Q 9.62 44.60 9.63 3.00
  Q 9.63 0.68 11.08 0.00
  Z
  M 57.87 36.49
  A 0.34 0.34 0.0 0 1 58.11 37.07
  L 44.40 50.78
  A 0.34 0.34 0.0 0 1 43.92 50.78
  L 36.73 43.59
  A 0.34 0.34 0.0 0 0 36.25 43.59
  L 21.88 57.92
  A 0.34 0.34 0.0 0 0 21.88 58.40
  L 24.20 60.68
  A 0.34 0.34 0.0 0 0 24.68 60.68
  L 36.26 49.08
  A 0.34 0.34 0.0 0 1 36.74 49.08
  L 43.91 56.26
  A 0.34 0.34 0.0 0 0 44.39 56.26
  L 60.86 39.80
  A 0.34 0.34 0.0 0 1 61.44 40.04
  L 61.43 51.52
  A 0.34 0.34 0.0 0 0 61.77 51.86
  L 64.94 51.91
  A 0.34 0.34 0.0 0 0 65.28 51.57
  L 65.28 32.99
  A 0.34 0.34 0.0 0 0 64.94 32.65
  L 46.36 32.64
  A 0.34 0.34 0.0 0 0 46.02 32.98
  L 46.03 36.15
  A 0.34 0.34 0.0 0 0 46.37 36.49
  L 57.87 36.49
  Z"
/>
<path fill="#6ab2e4" d="
  M 84.91 96.00
  L 18.70 96.00
  Q 16.83 94.95 17.36 92.69
  Q 17.47 92.20 17.98 92.20
  Q 48.87 92.19 76.05 92.20
  Q 82.55 92.20 82.56 85.52
  Q 82.58 47.87 82.55 8.58
  Q 82.55 7.34 83.75 7.64
  Q 84.57 7.84 85.18 8.00
  Q 86.37 8.30 86.37 9.53
  Q 86.38 51.41 86.37 93.00
  Q 86.37 95.37 84.91 96.00
  Z"
/>
</svg>
