<?xml version="1.0" encoding="UTF-8" standalone="no"?>
<!DOCTYPE svg PUBLIC "-//W3C//DTD SVG 1.1//EN" "http://www.w3.org/Graphics/SVG/1.1/DTD/svg11.dtd">
<svg xmlns="http://www.w3.org/2000/svg" version="1.1" viewBox="0.00 0.00 96.00 96.00">
<path fill="#6ab2e4" d="
  M 27.41 54.82
  L 27.45 51.58
  A 1.72 1.71 0.3 0 1 29.17 49.89
  L 36.23 49.87
  Q 36.82 49.87 36.79 49.27
  C 36.70 47.35 36.57 45.42 39.21 45.49
  Q 42.83 45.57 45.68 45.53
  A 0.49 0.48 -0.6 0 0 46.16 45.05
  L 46.18 42.06
  A 1.53 1.52 -90.0 0 1 47.69 40.54
  L 54.99 40.52
  Q 55.50 40.52 55.50 40.01
  L 55.51 31.01
  A 1.74 1.73 -90.0 0 1 57.24 29.27
  L 64.32 29.26
  Q 64.91 29.26 64.91 28.68
  L 64.93 25.76
  Q 64.93 25.28 64.48 25.11
  Q 59.71 23.33 59.27 18.22
  Q 59.23 17.78 58.82 17.61
  Q 52.83 15.20 53.77 8.16
  A 1.61 1.60 -86.5 0 1 55.35 6.76
  L 58.74 6.74
  Q 59.29 6.74 59.45 6.21
  Q 59.60 5.68 60.01 5.31
  Q 60.43 4.92 61.00 4.91
  Q 66.07 4.84 72.05 4.88
  Q 73.58 4.89 74.12 6.29
  A 0.70 0.69 79.6 0 0 74.77 6.74
  L 78.14 6.76
  A 1.62 1.62 0.0 0 1 79.73 8.16
  Q 80.67 15.13 74.76 17.59
  Q 74.25 17.80 74.20 18.34
  Q 73.76 23.24 69.11 25.09
  Q 68.55 25.31 68.57 25.92
  L 68.64 28.65
  Q 68.65 29.27 69.27 29.27
  L 76.00 29.26
  A 2.00 2.00 0.0 0 1 78.00 31.26
  L 78.00 81.22
  Q 78.00 81.88 78.65 81.81
  C 80.64 81.61 83.80 81.14 83.59 84.27
  Q 83.50 85.67 83.62 86.94
  Q 83.67 87.46 84.19 87.46
  L 87.33 87.46
  Q 88.83 87.46 89.18 88.92
  Q 89.40 89.85 88.45 90.73
  A 1.46 1.45 -66.3 0 1 87.46 91.12
  L 9.04 91.13
  Q 7.39 91.13 6.82 89.58
  Q 6.57 88.91 7.36 88.22
  Q 8.25 87.45 9.43 87.46
  L 11.10 87.46
  Q 12.74 87.47 12.47 85.85
  C 11.70 81.11 14.39 81.68 17.42 81.78
  Q 18.00 81.80 18.00 81.22
  L 18.00 57.76
  Q 18.00 55.53 20.24 55.53
  L 26.68 55.53
  Q 27.40 55.53 27.41 54.82
  Z
  M 70.11 8.54
  L 63.39 8.54
  A 0.40 0.40 0.0 0 0 62.99 8.94
  L 62.99 17.83
  A 3.91 3.68 90.0 0 0 66.67 21.74
  L 66.83 21.74
  A 3.91 3.68 90.0 0 0 70.51 17.83
  L 70.51 8.94
  A 0.40 0.40 0.0 0 0 70.11 8.54
  Z
  M 57.36 11.03
  Q 57.63 12.36 58.59 13.25
  Q 59.24 13.85 59.25 12.96
  L 59.26 11.14
  Q 59.27 10.50 58.64 10.51
  L 57.78 10.52
  A 0.43 0.43 0.0 0 0 57.36 11.03
  Z
  M 76.06 11.11
  Q 76.11 10.71 75.74 10.56
  Q 75.27 10.37 74.77 10.49
  Q 74.25 10.61 74.25 11.15
  L 74.24 13.01
  Q 74.23 13.76 74.82 13.30
  Q 75.86 12.49 76.06 11.11
  Z
  M 64.89 33.26
  A 0.26 0.26 0.0 0 0 64.63 33.00
  L 59.51 33.00
  A 0.26 0.26 0.0 0 0 59.25 33.26
  L 59.25 81.48
  A 0.26 0.26 0.0 0 0 59.51 81.74
  L 64.63 81.74
  A 0.26 0.26 0.0 0 0 64.89 81.48
  L 64.89 33.26
  Z
  M 74.25 33.32
  A 0.32 0.32 0.0 0 0 73.93 33.00
  L 68.89 33.00
  A 0.32 0.32 0.0 0 0 68.57 33.32
  L 68.57 81.42
  A 0.32 0.32 0.0 0 0 68.89 81.74
  L 73.93 81.74
  A 0.32 0.32 0.0 0 0 74.25 81.42
  L 74.25 33.32
  Z
  M 55.50 44.56
  A 0.31 0.31 0.0 0 0 55.19 44.25
  L 50.13 44.25
  A 0.31 0.31 0.0 0 0 49.82 44.56
  L 49.82 81.44
  A 0.31 0.31 0.0 0 0 50.13 81.75
  L 55.19 81.75
  A 0.31 0.31 0.0 0 0 55.50 81.44
  L 55.50 44.56
  Z
  M 46.18 49.56
  A 0.31 0.31 0.0 0 0 45.87 49.25
  L 40.81 49.25
  A 0.31 0.31 0.0 0 0 40.50 49.56
  L 40.50 81.44
  A 0.31 0.31 0.0 0 0 40.81 81.75
  L 45.87 81.75
  A 0.31 0.31 0.0 0 0 46.18 81.44
  L 46.18 49.56
  Z
  M 36.75 53.92
  A 0.37 0.37 0.0 0 0 36.38 53.55
  L 31.44 53.55
  A 0.37 0.37 0.0 0 0 31.07 53.92
  L 31.07 81.38
  A 0.37 0.37 0.0 0 0 31.44 81.75
  L 36.38 81.75
  A 0.37 0.37 0.0 0 0 36.75 81.38
  L 36.75 53.92
  Z
  M 27.43 59.57
  A 0.32 0.32 0.0 0 0 27.11 59.25
  L 22.07 59.25
  A 0.32 0.32 0.0 0 0 21.75 59.57
  L 21.75 81.43
  A 0.32 0.32 0.0 0 0 22.07 81.75
  L 27.11 81.75
  A 0.32 0.32 0.0 0 0 27.43 81.43
  L 27.43 59.57
  Z
  M 79.88 85.91
  A 0.41 0.41 0.0 0 0 79.47 85.50
  L 16.53 85.50
  A 0.41 0.41 0.0 0 0 16.12 85.91
  L 16.12 87.05
  A 0.41 0.41 0.0 0 0 16.53 87.46
  L 79.47 87.46
  A 0.41 0.41 0.0 0 0 79.88 87.05
  L 79.88 85.91
  Z"
/>
<path fill="#6ab2e4" d="
  M 17.96 9.56
  A 4.65 4.65 0.0 0 1 13.31 14.21
  A 4.65 4.65 0.0 0 1 8.66 9.56
  A 4.65 4.65 0.0 0 1 13.31 4.91
  A 4.65 4.65 0.0 0 1 17.96 9.56
  Z
  M 14.23 9.55
  A 0.91 0.91 0.0 0 0 13.32 8.64
  A 0.91 0.91 0.0 0 0 12.41 9.55
  A 0.91 0.91 0.0 0 0 13.32 10.46
  A 0.91 0.91 0.0 0 0 14.23 9.55
  Z"
/>
<circle fill="#6ab2e4" cx="40.50" cy="8.62" r="1.82"/>
<circle fill="#6ab2e4" cx="85.50" cy="8.62" r="1.82"/>
<path fill="#6ab2e4" d="
  M 26.87 26.79
  C 24.98 26.06 23.67 24.64 21.53 25.38
  Q 20.98 25.57 20.42 25.41
  Q 18.08 24.75 16.26 26.83
  Q 15.98 27.16 16.00 27.59
  C 16.41 35.69 5.17 33.63 6.94 27.29
  Q 8.17 22.91 13.08 23.96
  Q 13.57 24.06 13.98 23.78
  L 15.94 22.47
  Q 16.35 22.19 16.29 21.70
  C 15.42 14.37 26.01 14.53 25.42 21.34
  Q 25.37 21.98 25.95 22.26
  L 29.23 23.86
  Q 29.80 24.14 30.41 23.94
  Q 31.60 23.54 32.77 23.83
  C 34.32 24.22 35.56 23.37 36.59 22.38
  Q 36.90 22.09 36.87 21.67
  Q 36.53 17.34 40.42 16.31
  C 44.36 15.27 47.72 19.99 45.26 23.38
  Q 43.42 25.94 40.35 25.32
  A 3.11 3.11 0.0 0 0 36.62 28.41
  C 36.71 34.48 27.04 34.55 27.48 27.75
  Q 27.52 27.04 26.87 26.79
  Z
  M 21.48 21.38
  Q 21.99 20.70 21.42 20.19
  Q 21.10 19.89 20.68 19.94
  A 0.87 0.86 72.7 0 0 20.01 21.22
  Q 20.26 21.67 20.70 21.72
  A 0.87 0.85 21.0 0 0 21.48 21.38
  Z
  M 42.33 20.82
  A 0.90 0.90 0.0 0 0 41.43 19.92
  A 0.90 0.90 0.0 0 0 40.53 20.82
  A 0.90 0.90 0.0 0 0 41.43 21.72
  A 0.90 0.90 0.0 0 0 42.33 20.82
  Z
  M 12.34 28.32
  A 0.90 0.90 0.0 0 0 11.44 27.42
  A 0.90 0.90 0.0 0 0 10.54 28.32
  A 0.90 0.90 0.0 0 0 11.44 29.22
  A 0.90 0.90 0.0 0 0 12.34 28.32
  Z
  M 32.95 28.33
  A 0.90 0.90 0.0 0 0 32.05 27.43
  A 0.90 0.90 0.0 0 0 31.15 28.33
  A 0.90 0.90 0.0 0 0 32.05 29.23
  A 0.90 0.90 0.0 0 0 32.95 28.33
  Z"
/>
<path fill="#6ab2e4" d="
  M 92.96 22.69
  A 6.52 6.52 0.0 0 1 86.44 29.21
  A 6.52 6.52 0.0 0 1 79.92 22.69
  A 6.52 6.52 0.0 0 1 86.44 16.17
  A 6.52 6.52 0.0 0 1 92.96 22.69
  Z
  M 89.23 22.68
  A 2.79 2.79 0.0 0 0 86.44 19.89
  A 2.79 2.79 0.0 0 0 83.65 22.68
  A 2.79 2.79 0.0 0 0 86.44 25.47
  A 2.79 2.79 0.0 0 0 89.23 22.68
  Z"
/>
<rect fill="#6ab2e4" x="-22.88" y="-1.85" transform="translate(32.06,40.51) rotate(-32.2)" width="45.76" height="3.70" rx="1.82"/>
<circle fill="#6ab2e4" cx="18.00" cy="38.63" r="1.81"/>
<circle fill="#6ab2e4" cx="83.62" cy="46.12" r="1.82"/>
<path fill="#6ab2e4" d="
  M 14.20 63.00
  A 5.58 5.58 0.0 0 1 8.62 68.58
  A 5.58 5.58 0.0 0 1 3.04 63.00
  A 5.58 5.58 0.0 0 1 8.62 57.42
  A 5.58 5.58 0.0 0 1 14.20 63.00
  Z
  M 10.49 63.01
  A 1.87 1.87 0.0 0 0 8.62 61.14
  A 1.87 1.87 0.0 0 0 6.75 63.01
  A 1.87 1.87 0.0 0 0 8.62 64.88
  A 1.87 1.87 0.0 0 0 10.49 63.01
  Z"
/>
<circle fill="#6ab2e4" cx="12.37" cy="74.25" r="1.82"/>
</svg>
