<?xml version="1.0" encoding="UTF-8" standalone="no"?>
<svg
   viewBox="0 0 228.42799 184"
   width="57.106998"
   height="46"
   version="1.1"
   id="svg8"
   sodipodi:docname="icons8-twitter.svg"
   inkscape:version="1.2.2 (732a01da63, 2022-12-09)"
   xmlns:inkscape="http://www.inkscape.org/namespaces/inkscape"
   xmlns:sodipodi="http://sodipodi.sourceforge.net/DTD/sodipodi-0.dtd"
   xmlns="http://www.w3.org/2000/svg"
   xmlns:svg="http://www.w3.org/2000/svg">
  <defs
     id="defs12" />
  <sodipodi:namedview
     id="namedview10"
     pagecolor="#ffffff"
     bordercolor="#000000"
     borderopacity="0.25"
     inkscape:showpageshadow="2"
     inkscape:pageopacity="0.0"
     inkscape:pagecheckerboard="0"
     inkscape:deskcolor="#d1d1d1"
     showgrid="false"
     inkscape:zoom="8.609375"
     inkscape:cx="22.707804"
     inkscape:cy="22.068966"
     inkscape:window-width="1366"
     inkscape:window-height="705"
     inkscape:window-x="-8"
     inkscape:window-y="-8"
     inkscape:window-maximized="1"
     inkscape:current-layer="svg8" />
  <g
     fill="#339af0"
     fill-rule="nonzero"
     stroke="none"
     stroke-width="1"
     stroke-linecap="butt"
     stroke-linejoin="miter"
     stroke-miterlimit="10"
     stroke-dasharray="none"
     stroke-dashoffset="0"
     font-family="none"
     font-weight="none"
     font-size="none"
     text-anchor="none"
     style="mix-blend-mode:normal"
     id="g6"
     transform="translate(-19.3,-40)">
    <g
       transform="scale(4)"
       id="g4">
      <path
         d="m 61.932,15.439 c -2.099,0.93 -4.356,1.55 -6.737,1.843 2.421,-1.437 4.283,-3.729 5.157,-6.437 -2.265,1.328 -4.774,2.303 -7.444,2.817 C 50.776,11.402 47.735,10 44.366,10 c -6.472,0 -11.717,5.2 -11.717,11.611 0,0.907 0.106,1.791 0.306,2.649 -9.736,-0.489 -18.371,-5.117 -24.148,-12.141 -1.015,1.716 -1.586,3.726 -1.586,5.847 0,4.031 2.064,7.579 5.211,9.67 -1.921,-0.059 -3.729,-0.593 -5.312,-1.45 0,0.035 0,0.087 0,0.136 0,5.633 4.04,10.323 9.395,11.391 -0.979,0.268 -2.013,0.417 -3.079,0.417 -0.757,0 -1.494,-0.086 -2.208,-0.214 1.491,4.603 5.817,7.968 10.942,8.067 -4.01,3.109 -9.06,4.971 -14.552,4.971 C 6.669,50.954 5.742,50.9 4.825,50.789 10.012,54.074 16.173,56 22.786,56 44.335,56 56.123,38.304 56.123,22.953 c 0,-0.503 -0.016,-1.004 -0.04,-1.499 2.301,-1.624 4.283,-3.674 5.849,-6.015"
         id="path2" />
    </g>
  </g>
</svg>
