<?xml version="1.0" encoding="UTF-8" standalone="no"?>
<svg
   version="1.1"
   viewBox="0.00 0.00 684.00 413.00"
   id="svg132"
   sodipodi:docname="logo-bombom.svg"
   inkscape:version="1.2.2 (732a01da63, 2022-12-09)"
   xmlns:inkscape="http://www.inkscape.org/namespaces/inkscape"
   xmlns:sodipodi="http://sodipodi.sourceforge.net/DTD/sodipodi-0.dtd"
   xmlns="http://www.w3.org/2000/svg"
   xmlns:svg="http://www.w3.org/2000/svg">
  <defs
     id="defs136">
    <linearGradient
       id="linearGradient3926"
       inkscape:swatch="solid">
      <stop
         style="stop-color:#205283;stop-opacity:1;"
         offset="0"
         id="stop3924" />
    </linearGradient>
    <pattern
       inkscape:collect="always"
       patternUnits="userSpaceOnUse"
       width="2"
       height="1"
       patternTransform="translate(0,0) scale(10,10)"
       id="Strips1_1"
       inkscape:stockid="Stripes 1:1">
      <rect
         style="fill:black;stroke:none"
         x="0"
         y="-0.5"
         width="1"
         height="2"
         id="rect2458" />
    </pattern>
    <linearGradient
       id="linearGradient1472"
       inkscape:swatch="solid">
      <stop
         style="stop-color:#000000;stop-opacity:1;"
         offset="0"
         id="stop1470" />
    </linearGradient>
  </defs>
  <sodipodi:namedview
     id="namedview134"
     pagecolor="#ffffff"
     bordercolor="#000000"
     borderopacity="0.25"
     inkscape:showpageshadow="2"
     inkscape:pageopacity="0.0"
     inkscape:pagecheckerboard="0"
     inkscape:deskcolor="#d1d1d1"
     showgrid="false"
     inkscape:zoom="0.66707022"
     inkscape:cx="221.8657"
     inkscape:cy="98.940109"
     inkscape:window-width="1366"
     inkscape:window-height="705"
     inkscape:window-x="-8"
     inkscape:window-y="-8"
     inkscape:window-maximized="1"
     inkscape:current-layer="svg132" />
  <g
     stroke-width="2.00"
     fill="none"
     stroke-linecap="butt"
     id="g78">
    <path
       stroke="#94b8ed"
       vector-effect="non-scaling-stroke"
       d="   M 289.07 87.87   Q 280.91 92.93 275.70 100.90   C 272.22 106.23 269.61 114.46 270.22 120.98   Q 270.80 127.33 272.37 133.32   A 1.68 1.66 -35.1 0 1 272.12 134.71   L 260.34 151.50"
       id="path2" />
    <path
       stroke="#2561af"
       vector-effect="non-scaling-stroke"
       d="   M 260.34 151.50   Q 259.99 150.18 258.12 149.11   Q 212.91 123.18 167.62 97.39   Q 167.41 97.27 167.21 96.79"
       id="path4" />
    <path
       stroke="#90a9c1"
       vector-effect="non-scaling-stroke"
       d="   M 260.34 151.50   Q 241.26 181.67 231.52 216.01   Q 226.78 232.70 225.99 237.74   Q 224.36 248.13 224.18 268.49   Q 224.10 277.67 225.64 287.23"
       id="path6" />
    <path
       stroke="#2561af"
       vector-effect="non-scaling-stroke"
       d="   M 225.64 287.23   Q 196.72 303.82 167.65 320.39   Q 167.15 320.67 167.21 321.21"
       id="path8" />
    <path
       stroke="#94b8ed"
       vector-effect="non-scaling-stroke"
       d="   M 367.78 132.97   C 369.92 138.62 372.06 144.05 373.03 149.89   Q 373.55 153.02 374.14 156.15   C 374.65 158.88 374.26 161.78 374.69 164.65   C 375.75 171.63 375.76 177.95 375.51 185.00   C 375.40 188.11 371.77 190.09 374.05 193.31   Q 374.29 193.65 374.23 194.05   L 373.72 197.77   Q 373.65 198.31 373.29 198.70   C 371.64 200.55 374.18 201.96 373.34 203.76   C 370.41 210.05 369.09 215.97 368.10 222.82   Q 367.87 224.43 366.76 226.54   C 365.50 228.94 365.93 232.17 364.16 233.93   Q 363.82 234.27 363.41 234.03   Q 362.81 233.68 362.99 232.99   C 365.73 222.97 368.06 214.25 369.20 204.72   C 369.82 199.52 370.91 195.34 370.44 189.50   Q 370.34 188.19 371.22 185.11   C 372.07 182.12 372.04 180.27 370.92 177.58   A 0.77 0.75 -85.9 0 0 370.65 177.26   Q 369.44 176.40 369.24 177.75   C 368.99 179.47 369.29 181.39 368.48 182.94   C 367.64 184.55 366.76 185.19 367.24 187.25   C 367.79 189.65 367.95 191.67 367.45 194.23   C 365.67 203.32 365.35 211.35 361.73 220.74   C 361.10 222.37 361.37 224.68 360.63 226.69   C 358.87 231.48 358.08 236.44 355.98 240.93   C 352.13 249.19 349.05 257.65 344.19 265.39   C 341.72 269.31 340.03 274.26 336.97 278.15   Q 335.08 280.56 338.05 279.80   C 339.21 279.50 340.85 277.66 341.61 276.41   Q 346.42 268.48 351.36 260.62   C 352.80 258.33 352.74 255.92 354.31 253.57   C 357.72 248.46 358.87 242.80 361.55 237.51   Q 361.85 236.93 362.30 237.40   Q 363.60 238.77 365.49 238.80   A 0.70 0.70 0.0 0 1 366.16 239.69   Q 365.32 242.65 362.25 242.58   Q 361.66 242.57 361.43 243.11   L 359.30 248.12   Q 358.98 248.88 359.77 249.13   Q 361.95 249.81 361.12 252.21   Q 360.93 252.76 360.40 253.00   L 357.68 254.29   A 1.63 1.62 -22.5 0 0 356.84 256.31   L 357.88 259.20   A 1.18 1.17 -10.0 0 1 356.78 260.77   L 354.72 260.79   Q 354.19 260.79 353.87 261.23   Q 353.24 262.11 353.81 262.85   Q 354.09 263.21 354.77 263.33   Q 355.39 263.43 355.89 263.55   A 0.79 0.79 0.0 0 1 356.32 264.80   C 355.32 266.10 354.58 267.10 353.99 268.74   C 353.38 270.45 350.66 276.85 348.24 276.74   A 0.37 0.37 0.0 0 1 347.93 276.22   Q 348.50 275.06 348.57 273.80   A 0.50 0.50 0.0 0 0 348.11 273.27   C 346.48 273.14 345.67 275.94 347.16 276.72   Q 347.59 276.94 347.63 277.41   C 348.00 281.49 346.33 282.50 344.13 285.53   Q 343.87 285.90 343.82 286.35   L 343.48 289.71   A 1.18 1.15 -16.3 0 1 343.02 290.52   C 340.37 292.54 339.32 295.45 337.49 297.59   Q 334.83 300.67 332.44 303.96"
       id="path10" />
    <path
       stroke="#90a9c1"
       vector-effect="non-scaling-stroke"
       d="   M 332.44 303.96   Q 331.82 304.68 331.71 305.49"
       id="path12" />
    <path
       stroke="#94b8ed"
       vector-effect="non-scaling-stroke"
       d="   M 266.12 343.12   Q 262.54 341.56 258.33 339.58   C 247.18 334.35 237.49 320.60 232.58 309.94   Q 228.16 300.33 225.64 287.23"
       id="path14" />
    <path
       stroke="#b4d9f1"
       vector-effect="non-scaling-stroke"
       d="   M 550.40 141.78   L 517.84 226.25   Q 517.34 227.55 516.84 226.25   L 471.11 107.40   A 0.78 0.77 79.5 0 0 470.39 106.90   L 420.74 106.96   A 0.62 0.62 0.0 0 0 420.12 107.53   L 415.45 160.11"
       id="path16" />
    <path
       stroke="#4991df"
       vector-effect="non-scaling-stroke"
       d="   M 415.45 160.11   L 367.78 132.97"
       id="path18" />
    <path
       stroke="#b4d9f1"
       vector-effect="non-scaling-stroke"
       d="   M 367.78 132.97   Q 362.94 121.17 354.64 109.10   Q 346.14 96.73 333.82 89.54"
       id="path20" />
    <path
       stroke="#4991df"
       vector-effect="non-scaling-stroke"
       d="   M 406.13 263.08   Q 370.25 283.50 334.95 303.71   Q 334.60 303.91 334.22 304.72"
       id="path22" />
    <path
       stroke="#2561af"
       vector-effect="non-scaling-stroke"
       d="   M 333.79 304.57   L 332.44 303.96"
       id="path24" />
    <path
       stroke="#b4d9f1"
       vector-effect="non-scaling-stroke"
       d="   M 621.25 182.18   L 625.81 232.99"
       id="path26" />
    <path
       stroke="#b4d9f1"
       vector-effect="non-scaling-stroke"
       d="   M 581.02 258.51   Q 578.42 226.36 575.93 193.75   Q 575.86 192.83 575.45 192.32   A 0.62 0.61 -54.5 0 0 574.39 192.50   L 543.96 279.67"
       id="path28" />
    <path
       stroke="#b4d9f1"
       vector-effect="non-scaling-stroke"
       d="   M 499.65 304.95   L 471.73 225.20"
       id="path30" />
    <path
       stroke="#94b8ed"
       vector-effect="non-scaling-stroke"
       d="   M 471.73 225.20   L 460.38 192.74   Q 460.25 192.37 459.87 192.26   Q 459.71 192.22 459.54 192.24   Q 459.08 192.29 459.04 192.75   L 455.63 234.79"
       id="path32" />
    <path
       stroke="#b4d9f1"
       vector-effect="non-scaling-stroke"
       d="   M 455.63 234.79   L 449.16 315.71   Q 449.11 316.30 448.52 316.30   L 401.74 316.29   Q 401.33 316.29 401.37 315.89   L 406.13 263.08"
       id="path34" />
    <path
       stroke="#94b8ed"
       vector-effect="non-scaling-stroke"
       d="   M 406.13 263.08   L 415.45 160.11"
       id="path36" />
    <path
       stroke="#4991df"
       vector-effect="non-scaling-stroke"
       d="   M 471.73 225.20   L 455.63 234.79"
       id="path38" />
    <path
       stroke="#90a9c1"
       vector-effect="non-scaling-stroke"
       d="   M 148.54 205.38   A 0.48 0.47 37.7 0 1 148.42 204.49   C 170.78 193.23 176.46 170.22 172.48 147.02   C 167.42 117.52 139.36 107.36 113.00 107.13   Q 78.73 106.83 44.54 106.96   A 0.28 0.28 0.0 0 0 44.26 107.24   L 44.26 315.75   Q 44.26 316.33 44.83 316.32   Q 85.00 316.28 124.75 316.14   Q 140.00 316.09 153.50 311.75   C 181.21 302.87 195.10 277.60 191.86 249.22   Q 188.46 219.50 161.69 208.97   C 157.69 207.39 153.01 206.35 148.54 205.38"
       id="path40" />
    <path
       stroke="#94b8ed"
       vector-effect="non-scaling-stroke"
       d="   M 315.92 103.05   Q 311.60 107.81 306.58 112.48   C 298.04 120.41 291.25 128.49 284.04 137.05   Q 282.47 138.92 282.28 140.06   C 281.59 144.07 289.04 148.42 291.87 149.62   Q 292.58 149.92 292.83 150.30   Q 293.23 150.89 293.03 151.56   Q 292.90 152.01 292.43 151.97   Q 285.99 151.44 281.18 147.38   C 279.66 146.10 277.87 144.96 276.52 146.97   Q 272.20 153.38 269.56 156.74"
       id="path42" />
    <path
       stroke="#90a9c1"
       vector-effect="non-scaling-stroke"
       d="   M 269.56 156.74   Q 266.58 160.70 264.67 165.30   C 263.58 167.93 261.39 169.82 260.39 171.98   Q 255.71 182.08 250.98 192.16   C 246.55 201.61 243.70 211.33 240.28 221.02   C 238.88 224.99 238.12 231.38 236.98 236.81   Q 234.99 246.33 234.41 256.07   C 234.28 258.32 233.20 261.09 233.80 263.85   C 235.05 269.62 234.45 275.98 234.58 282.09"
       id="path44" />
    <path
       stroke="#94b8ed"
       vector-effect="non-scaling-stroke"
       d="   M 234.58 282.09   Q 234.13 286.99 234.56 288.75   C 237.30 299.87 241.04 311.54 247.23 321.25   C 251.95 328.66 258.61 334.67 268.27 333.88   C 283.03 332.66 296.70 322.72 306.48 311.98   Q 308.36 309.90 315.62 303.13   Q 316.64 302.18 318.54 299.36   C 320.97 295.77 324.54 292.88 326.84 289.59   Q 330.90 283.81 337.66 273.00   C 340.21 268.92 341.91 264.04 344.36 259.59   C 349.41 250.41 352.79 242.19 356.11 232.89   C 358.54 226.08 359.55 218.19 361.54 210.80"
       id="path46" />
    <path
       stroke="#b4d9f1"
       vector-effect="non-scaling-stroke"
       d="   M 361.54 210.80   Q 362.32 209.17 361.92 208.20"
       id="path48" />
    <path
       stroke="#94b8ed"
       vector-effect="non-scaling-stroke"
       d="   M 361.92 208.20   C 363.32 202.54 364.42 197.52 364.13 191.47   Q 363.94 187.43 365.18 183.54   C 366.04 180.85 364.42 178.81 364.52 176.13   C 365.15 158.51 359.04 142.71 351.87 126.62   Q 350.23 122.93 348.98 121.44"
       id="path50" />
    <path
       stroke="#b4d9f1"
       vector-effect="non-scaling-stroke"
       d="   M 348.98 121.44   Q 343.97 108.33 334.17 98.85"
       id="path52" />
    <path
       stroke="#4991df"
       vector-effect="non-scaling-stroke"
       d="   M 361.92 208.20   Q 361.03 208.55 361.54 210.80"
       id="path54" />
    <path
       stroke="#2561af"
       vector-effect="non-scaling-stroke"
       d="   M 234.58 282.09   L 360.70 210.02   A 1.41 1.41 0.0 0 0 360.70 207.57   Q 316.63 182.50 272.15 157.07   Q 271.15 156.50 269.56 156.74"
       id="path56" />
    <path
       stroke="#4991df"
       vector-effect="non-scaling-stroke"
       d="   M 348.98 121.44   Q 341.16 118.12 334.22 113.57"
       id="path58" />
    <path
       stroke="#94b8ed"
       vector-effect="non-scaling-stroke"
       d="   M 298.72 98.48   C 288.86 104.15 280.63 112.30 278.36 123.77   Q 278.10 125.09 279.05 124.13   Q 288.64 114.43 297.45 103.55   C 299.43 101.10 301.59 99.46 304.07 97.82   Q 305.25 97.04 303.84 97.03   Q 301.28 97.00 298.72 98.48"
       id="path60" />
    <path
       stroke="#94b8ed"
       vector-effect="non-scaling-stroke"
       d="   M 269.8661 146.3691   A 2.19 0.86 112.1 0 0 271.4868 144.6636   A 2.19 0.86 112.1 0 0 271.5139 142.3109   A 2.19 0.86 112.1 0 0 269.8932 144.0164   A 2.19 0.86 112.1 0 0 269.8661 146.3691"
       id="path62" />
    <path
       stroke="#94b8ed"
       vector-effect="non-scaling-stroke"
       d="   M 367.27 167.43   L 368.79 167.21   A 0.20 0.20 0.0 0 0 368.96 166.98   L 368.94 166.80   A 15.78 0.81 81.8 0 0 365.89 151.30   L 365.57 151.35   A 15.78 0.81 81.8 0 0 367.02 167.08   L 367.04 167.26   A 0.20 0.20 0.0 0 0 367.27 167.43"
       id="path64" />
    <path
       stroke="#90a9c1"
       vector-effect="non-scaling-stroke"
       d="   M 242.97 198.61   A 0.13 0.13 0.0 0 0 242.90 198.45   L 242.65 198.34   A 0.13 0.13 0.0 0 0 242.48 198.42   L 239.51 206.00   A 0.13 0.13 0.0 0 0 239.61 206.17   L 240.18 206.30   A 0.13 0.13 0.0 0 0 240.33 206.22   L 242.97 198.61"
       id="path66" />
    <path
       stroke="#94b8ed"
       vector-effect="non-scaling-stroke"
       d="   M 342.7022 281.6291   A 2.56 0.98 127.2 0 0 345.0306 280.1825   A 2.56 0.98 127.2 0 0 345.7978 277.5509   A 2.56 0.98 127.2 0 0 343.4694 278.9975   A 2.56 0.98 127.2 0 0 342.7022 281.6291"
       id="path68" />
    <path
       stroke="#94b8ed"
       vector-effect="non-scaling-stroke"
       d="   M 340.54 283.02   C 336.88 283.89 337.51 288.59 333.30 289.43   A 0.90 0.90 0.0 0 0 332.74 289.82   L 330.15 293.85   Q 329.79 294.41 330.40 294.68   Q 331.57 295.20 332.43 296.18   Q 332.84 296.65 333.22 296.16   C 336.22 292.30 339.45 289.08 341.84 284.72   Q 343.10 282.41 340.54 283.02"
       id="path70" />
    <path
       stroke="#94b8ed"
       vector-effect="non-scaling-stroke"
       d="   M 316.1075 313.4317   A 3.51 1.13 -35.5 0 0 312.5938 314.5500   A 3.51 1.13 -35.5 0 0 310.3925 317.5083   A 3.51 1.13 -35.5 0 0 313.9062 316.3900   A 3.51 1.13 -35.5 0 0 316.1075 313.4317"
       id="path72" />
    <path
       stroke="#90a9c1"
       vector-effect="non-scaling-stroke"
       d="   M 91.90 144.21   L 92.06 188.29   A 0.26 0.26 0.0 0 0 92.32 188.55   L 102.76 188.51   A 24.70 20.27 -0.2 0 0 127.39 168.16   L 127.37 164.10   A 24.70 20.27 -0.2 0 0 102.60 143.91   L 92.16 143.95   A 0.26 0.26 0.0 0 0 91.90 144.21"
       id="path74" />
    <path
       stroke="#90a9c1"
       vector-effect="non-scaling-stroke"
       d="   M 92.07 230.44   L 91.90 279.06   A 0.21 0.21 0.0 0 0 92.10 279.27   L 113.99 279.35   A 27.76 21.97 0.2 0 0 141.83 257.48   L 141.85 252.38   A 27.76 21.97 0.2 0 0 114.17 230.31   L 92.28 230.23   A 0.21 0.21 0.0 0 0 92.07 230.44"
       id="path76" />
  </g>
  <path
     fill="#2970da"
     d="   M 289.07 87.87   Q 280.91 92.93 275.70 100.90   C 272.22 106.23 269.61 114.46 270.22 120.98   Q 270.80 127.33 272.37 133.32   A 1.68 1.66 -35.1 0 1 272.12 134.71   L 260.34 151.50   Q 259.99 150.18 258.12 149.11   Q 212.91 123.18 167.62 97.39   Q 167.41 97.27 167.21 96.79   L 167.21 19.03   A 0.42 0.42 0.0 0 1 167.84 18.67   L 289.07 87.87   Z"
     id="path80" />
  <path
     fill="#69b2e3"
     d="   M 550.40 141.78   L 517.84 226.25   Q 517.34 227.55 516.84 226.25   L 471.11 107.40   A 0.78 0.77 79.5 0 0 470.39 106.90   L 420.74 106.96   A 0.62 0.62 0.0 0 0 420.12 107.53   L 415.45 160.11   L 367.78 132.97   Q 362.94 121.17 354.64 109.10   Q 346.14 96.73 333.82 89.54   Q 333.58 89.77 334.00 89.59   A 0.38 0.38 0.0 0 0 334.23 89.24   L 334.21 19.25   Q 334.21 18.31 335.01 18.78   L 550.40 141.78   Z"
     id="path82" />
  <path
     fill="#205283"
     d="   M 167.21 96.79   Q 167.41 97.27 167.62 97.39   Q 212.91 123.18 258.12 149.11   Q 259.99 150.18 260.34 151.50   Q 241.26 181.67 231.52 216.01   Q 226.78 232.70 225.99 237.74   Q 224.36 248.13 224.18 268.49   Q 224.10 277.67 225.64 287.23   Q 196.72 303.82 167.65 320.39   Q 167.15 320.67 167.21 321.21   L 167.09 320.95   Q 167.00 320.76 166.81 320.87   L 30.11 399.05   A 0.56 0.56 0.0 0 1 29.27 398.56   L 29.27 19.49   Q 29.27 18.38 30.23 18.93   L 167.21 96.79   Z   M 148.54 205.38   A 0.48 0.47 37.7 0 1 148.42 204.49   C 170.78 193.23 176.46 170.22 172.48 147.02   C 167.42 117.52 139.36 107.36 113.00 107.13   Q 78.73 106.83 44.54 106.96   A 0.28 0.28 0.0 0 0 44.26 107.24   L 44.26 315.75   Q 44.26 316.33 44.83 316.32   Q 85.00 316.28 124.75 316.14   Q 140.00 316.09 153.50 311.75   C 181.21 302.87 195.10 277.60 191.86 249.22   Q 188.46 219.50 161.69 208.97   C 157.69 207.39 153.01 206.35 148.54 205.38   Z"
     id="path84" />
  <path
     fill="#2970da"
     d="   M 298.72 98.48   Q 301.28 97.00 303.84 97.03   Q 305.25 97.04 304.07 97.82   C 301.59 99.46 299.43 101.10 297.45 103.55   Q 288.64 114.43 279.05 124.13   Q 278.10 125.09 278.36 123.77   C 280.63 112.30 288.86 104.15 298.72 98.48   Z"
     id="path88" />
  <path
     fill="#69b2e3"
     d="   M 334.17 98.85   Q 343.97 108.33 348.98 121.44   Q 341.16 118.12 334.22 113.57   L 334.17 98.85   Z"
     id="path90" />
  <path
     fill="#2970da"
     d="   M 315.92 103.05   L 334.22 113.57   Q 341.16 118.12 348.98 121.44   Q 350.23 122.93 351.87 126.62   C 359.04 142.71 365.15 158.51 364.52 176.13   C 364.42 178.81 366.04 180.85 365.18 183.54   Q 363.94 187.43 364.13 191.47   C 364.42 197.52 363.32 202.54 361.92 208.20   Q 361.03 208.55 361.54 210.80   C 359.55 218.19 358.54 226.08 356.11 232.89   C 352.79 242.19 349.41 250.41 344.36 259.59   C 341.91 264.04 340.21 268.92 337.66 273.00   Q 330.90 283.81 326.84 289.59   C 324.54 292.88 320.97 295.77 318.54 299.36   Q 316.64 302.18 315.62 303.13   Q 308.36 309.90 306.48 311.98   C 296.70 322.72 283.03 332.66 268.27 333.88   C 258.61 334.67 251.95 328.66 247.23 321.25   C 241.04 311.54 237.30 299.87 234.56 288.75   Q 234.13 286.99 234.58 282.09   L 360.70 210.02   A 1.41 1.41 0.0 0 0 360.70 207.57   Q 316.63 182.50 272.15 157.07   Q 271.15 156.50 269.56 156.74   Q 272.20 153.38 276.52 146.97   C 277.87 144.96 279.66 146.10 281.18 147.38   Q 285.99 151.44 292.43 151.97   Q 292.90 152.01 293.03 151.56   Q 293.23 150.89 292.83 150.30   Q 292.58 149.92 291.87 149.62   C 289.04 148.42 281.59 144.07 282.28 140.06   Q 282.47 138.92 284.04 137.05   C 291.25 128.49 298.04 120.41 306.58 112.48   Q 311.60 107.81 315.92 103.05   Z"
     id="path92" />
  <path
     fill="#2970da"
     d="   M 415.45 160.11   L 406.13 263.08   Q 370.25 283.50 334.95 303.71   Q 334.60 303.91 334.22 304.72   Q 333.84 304.38 333.79 304.57   L 332.44 303.96   Q 334.83 300.67 337.49 297.59   C 339.32 295.45 340.37 292.54 343.02 290.52   A 1.18 1.15 -16.3 0 0 343.48 289.71   L 343.82 286.35   Q 343.87 285.90 344.13 285.53   C 346.33 282.50 348.00 281.49 347.63 277.41   Q 347.59 276.94 347.16 276.72   C 345.67 275.94 346.48 273.14 348.11 273.27   A 0.50 0.50 0.0 0 1 348.57 273.80   Q 348.50 275.06 347.93 276.22   A 0.37 0.37 0.0 0 0 348.24 276.74   C 350.66 276.85 353.38 270.45 353.99 268.74   C 354.58 267.10 355.32 266.10 356.32 264.80   A 0.79 0.79 0.0 0 0 355.89 263.55   Q 355.39 263.43 354.77 263.33   Q 354.09 263.21 353.81 262.85   Q 353.24 262.11 353.87 261.23   Q 354.19 260.79 354.72 260.79   L 356.78 260.77   A 1.18 1.17 -10.0 0 0 357.88 259.20   L 356.84 256.31   A 1.63 1.62 -22.5 0 1 357.68 254.29   L 360.40 253.00   Q 360.93 252.76 361.12 252.21   Q 361.95 249.81 359.77 249.13   Q 358.98 248.88 359.30 248.12   L 361.43 243.11   Q 361.66 242.57 362.25 242.58   Q 365.32 242.65 366.16 239.69   A 0.70 0.70 0.0 0 0 365.49 238.80   Q 363.60 238.77 362.30 237.40   Q 361.85 236.93 361.55 237.51   C 358.87 242.80 357.72 248.46 354.31 253.57   C 352.74 255.92 352.80 258.33 351.36 260.62   Q 346.42 268.48 341.61 276.41   C 340.85 277.66 339.21 279.50 338.05 279.80   Q 335.08 280.56 336.97 278.15   C 340.03 274.26 341.72 269.31 344.19 265.39   C 349.05 257.65 352.13 249.19 355.98 240.93   C 358.08 236.44 358.87 231.48 360.63 226.69   C 361.37 224.68 361.10 222.37 361.73 220.74   C 365.35 211.35 365.67 203.32 367.45 194.23   C 367.95 191.67 367.79 189.65 367.24 187.25   C 366.76 185.19 367.64 184.55 368.48 182.94   C 369.29 181.39 368.99 179.47 369.24 177.75   Q 369.44 176.40 370.65 177.26   A 0.77 0.75 -85.9 0 1 370.92 177.58   C 372.04 180.27 372.07 182.12 371.22 185.11   Q 370.34 188.19 370.44 189.50   C 370.91 195.34 369.82 199.52 369.20 204.72   C 368.06 214.25 365.73 222.97 362.99 232.99   Q 362.81 233.68 363.41 234.03   Q 363.82 234.27 364.16 233.93   C 365.93 232.17 365.50 228.94 366.76 226.54   Q 367.87 224.43 368.10 222.82   C 369.09 215.97 370.41 210.05 373.34 203.76   C 374.18 201.96 371.64 200.55 373.29 198.70   Q 373.65 198.31 373.72 197.77   L 374.23 194.05   Q 374.29 193.65 374.05 193.31   C 371.77 190.09 375.40 188.11 375.51 185.00   C 375.76 177.95 375.75 171.63 374.69 164.65   C 374.26 161.78 374.65 158.88 374.14 156.15   Q 373.55 153.02 373.03 149.89   C 372.06 144.05 369.92 138.62 367.78 132.97   L 415.45 160.11   Z"
     id="path98" />
  <ellipse
     fill="#2970da"
     cx="0.00"
     cy="0.00"
     transform="translate(270.69,144.34) rotate(112.1)"
     rx="2.19"
     ry="0.86"
     id="ellipse100" />
  <path
     fill="#205283"
     d="   M 91.90 144.21   A 0.26 0.26 0.0 0 1 92.16 143.95   L 102.60 143.91   A 24.70 20.27 -0.2 0 1 127.37 164.10   L 127.39 168.16   A 24.70 20.27 -0.2 0 1 102.76 188.51   L 92.32 188.55   A 0.26 0.26 0.0 0 1 92.06 188.29   L 91.90 144.21   Z"
     id="path102" />
  <path
     fill="#2970da"
     d="   M 367.27 167.43   A 0.20 0.20 0.0 0 1 367.04 167.26   L 367.02 167.08   A 15.78 0.81 81.8 0 1 365.57 151.35   L 365.89 151.30   A 15.78 0.81 81.8 0 1 368.94 166.80   L 368.96 166.98   A 0.20 0.20 0.0 0 1 368.79 167.21   L 367.27 167.43   Z"
     id="path104" />
  <path
     fill="#205283"
     d="   M 269.56 156.74   Q 271.15 156.50 272.15 157.07   Q 316.63 182.50 360.70 207.57   A 1.41 1.41 0.0 0 1 360.70 210.02   L 234.58 282.09   C 234.45 275.98 235.05 269.62 233.80 263.85   C 233.20 261.09 234.28 258.32 234.41 256.07   Q 234.99 246.33 236.98 236.81   C 238.12 231.38 238.88 224.99 240.28 221.02   C 243.70 211.33 246.55 201.61 250.98 192.16   Q 255.71 182.08 260.39 171.98   C 261.39 169.82 263.58 167.93 264.67 165.30   Q 266.58 160.70 269.56 156.74   Z"
     id="path106" />
  <path
     fill="#69b2e3"
     d="   M 621.25 182.18   L 667.32 208.55   A 0.32 0.32 0.0 0 1 667.32 209.11   L 625.81 232.99   L 621.25 182.18   Z"
     id="path108" />
  <path
     fill="#69b2e3"
     d="   M 581.02 258.51   L 543.96 279.67   L 574.39 192.50   A 0.62 0.61 -54.5 0 1 575.45 192.32   Q 575.86 192.83 575.93 193.75   Q 578.42 226.36 581.02 258.51   Z"
     id="path110" />
  <path
     fill="#2970da"
     d="   M 471.73 225.20   L 455.63 234.79   L 459.04 192.75   Q 459.08 192.29 459.54 192.24   Q 459.71 192.22 459.87 192.26   Q 460.25 192.37 460.38 192.74   L 471.73 225.20   Z"
     id="path112" />
  <path
     fill="#205283"
     d="   M 242.97 198.61   L 240.33 206.22   A 0.13 0.13 0.0 0 1 240.18 206.30   L 239.61 206.17   A 0.13 0.13 0.0 0 1 239.51 206.00   L 242.48 198.42   A 0.13 0.13 0.0 0 1 242.65 198.34   L 242.90 198.45   A 0.13 0.13 0.0 0 1 242.97 198.61   Z"
     id="path114" />
  <path
     fill="#69b2e3"
     d="   M 361.92 208.20   Q 362.32 209.17 361.54 210.80   Q 361.03 208.55 361.92 208.20   Z"
     id="path116" />
  <path
     fill="#69b2e3"
     d="   M 471.73 225.20   L 499.65 304.95   L 334.84 399.20   A 0.43 0.43 0.0 0 1 334.20 398.83   L 334.22 304.72   Q 334.60 303.91 334.95 303.71   Q 370.25 283.50 406.13 263.08   L 401.37 315.89   Q 401.33 316.29 401.74 316.29   L 448.52 316.30   Q 449.11 316.30 449.16 315.71   L 455.63 234.79   L 471.73 225.20   Z"
     id="path118" />
  <path
     fill="#205283"
     d="   M 92.07 230.44   A 0.21 0.21 0.0 0 1 92.28 230.23   L 114.17 230.31   A 27.76 21.97 0.2 0 1 141.85 252.38   L 141.83 257.48   A 27.76 21.97 0.2 0 1 113.99 279.35   L 92.10 279.27   A 0.21 0.21 0.0 0 1 91.90 279.06   L 92.07 230.44   Z"
     id="path120" />
  <ellipse
     fill="#2970da"
     cx="0.00"
     cy="0.00"
     transform="translate(344.25,279.59) rotate(127.2)"
     rx="2.56"
     ry="0.98"
     id="ellipse122" />
  <path
     fill="#2970da"
     d="   M 333.30 289.43   C 337.51 288.59 336.88 283.89 340.54 283.02   Q 343.10 282.41 341.84 284.72   C 339.45 289.08 336.22 292.30 333.22 296.16   Q 332.84 296.65 332.43 296.18   Q 331.57 295.20 330.40 294.68   Q 329.79 294.41 330.15 293.85   L 332.74 289.82   A 0.90 0.90 0.0 0 1 333.30 289.43   Z"
     id="path124" />
  <path
     fill="#2970da"
     d="   M 225.64 287.23   Q 228.16 300.33 232.58 309.94   C 237.49 320.60 247.18 334.35 258.33 339.58   Q 262.54 341.56 266.12 343.12   L 167.98 399.19   A 0.52 0.51 75.2 0 1 167.21 398.74   L 167.21 321.21   Q 167.15 320.67 167.65 320.39   Q 196.72 303.82 225.64 287.23   Z"
     id="path126" />
  <path
     fill="#205283"
     d="   M 332.44 303.96   L 333.79 304.57   L 331.71 305.49   Q 331.82 304.68 332.44 303.96   Z"
     id="path128" />
  <ellipse
     fill="#2970da"
     cx="0.00"
     cy="0.00"
     transform="translate(313.25,315.47) rotate(-35.5)"
     rx="3.51"
     ry="1.13"
     id="ellipse130" />
  <path
     style="opacity:1;fill:#205283;fill-opacity:1;stroke:url(#Strips1_1);stroke-width:0;fill-rule:nonzero"
     d="m 249.76686,144.29502 24.71168,14.1115 -36.90189,121.96838 -14.64151,8.34764 -7.75138,-76.71884 z"
     id="path791" />
  <path
     style="opacity:1;fill:#205283;fill-opacity:1;fill-rule:nonzero;stroke:#000000;stroke-width:0"
     d="M 38.976407,89.945554 39.725953,335.04719 158.90381,319.30672 212.1216,264.58984 164.90018,105.68603 Z"
     id="path3930" />
  <path
     style="opacity:1;fill:#2970da;fill-opacity:1;fill-rule:nonzero;stroke:#000000;stroke-width:0"
     d="m 281.16991,83.476458 129.85227,73.936292 -20.93537,114.6145 -146.28255,83.87397 -26.06107,-64.23402 143.72312,-81.91604 -0.0663,-1.98753 L 255.97005,147.848 271.05467,94.442831 Z"
     id="path4485" />
  <path
     style="opacity:1;fill:#2970da;fill-opacity:1;fill-rule:nonzero;stroke:#000000;stroke-width:0"
     d="M 403.77121,264.3556 504.0388,206.1736 404.39706,154.4977 Z"
     id="path4487" />
  <path
     style="opacity:1;fill:#69b2e3;fill-opacity:1;fill-rule:nonzero;stroke:#000000;stroke-width:0"
     d="m 383.48662,275.83303 4.87205,92.66266 279.11229,-159.55966 -333.03512,-190.120701 -0.265,94.474151 166.1579,95.53417 z"
     id="path4612" />
  <path
     style="opacity:1;fill:#000000;fill-opacity:0;fill-rule:nonzero;stroke:#000000;stroke-width:0"
     d="m 334.29764,304.26894 -28.5296,16.11525 25.25034,-10.21257 z"
     id="path4668" />
  <path
     style="opacity:1;fill:#ffffff;fill-opacity:1;fill-rule:nonzero;stroke:#000000;stroke-width:0"
     d="m 315.95177,314.52737 -6.19448,3.61069 5.20071,-1.59003 z"
     id="path4793" />
  <path
     style="opacity:1;fill:#ffffff;fill-opacity:1;fill-rule:nonzero;stroke:#000000;stroke-width:0"
     d="m 312.72476,317.10492 -1.80359,0.56216 0.53873,0.56216 z"
     id="path5281" />
  <path
     style="opacity:1;fill:#69b2e3;fill-opacity:1;fill-rule:nonzero;stroke:#000000;stroke-width:0"
     d="M 499.94737,208.46756 427.61615,250.489 c 0,0 75.65733,-40.94397 72.33122,-42.02144 z"
     id="path5283" />
  <path
     style="opacity:1;fill:#69b2e3;fill-opacity:1;fill-rule:nonzero;stroke:#000000;stroke-width:0"
     d="m 500.39499,209.43647 0.14907,-1.01033 c 0,0 -0.69564,0.1325 -0.97721,0.34782 -0.28157,0.21532 -0.31469,0.48032 -0.31469,0.48032 l 0.46376,0.23188 z"
     id="path5285" />
</svg>
