<?xml version="1.0" encoding="UTF-8" standalone="no"?>
<svg
   version="1.1"
   viewBox="0 0 638.19 380.8934"
   id="svg270"
   sodipodi:docname="logo-bom.svg"
   inkscape:version="1.2.2 (732a01da63, 2022-12-09)"
   width="638.19"
   height="380.8934"
   xmlns:inkscape="http://www.inkscape.org/namespaces/inkscape"
   xmlns:sodipodi="http://sodipodi.sourceforge.net/DTD/sodipodi-0.dtd"
   xmlns:xlink="http://www.w3.org/1999/xlink"
   xmlns="http://www.w3.org/2000/svg"
   xmlns:svg="http://www.w3.org/2000/svg">
  <defs
     id="defs274">
    <linearGradient
       id="linearGradient5017"
       inkscape:swatch="solid">
      <stop
         style="stop-color:#000000;stop-opacity:0;"
         offset="0"
         id="stop5015" />
    </linearGradient>
    <linearGradient
       inkscape:collect="always"
       xlink:href="#linearGradient5017"
       id="linearGradient5019"
       x1="365.69659"
       y1="233.77852"
       x2="518.20044"
       y2="233.77852"
       gradientUnits="userSpaceOnUse"
       gradientTransform="translate(-171.26,-40.53)" />
  </defs>
  <sodipodi:namedview
     id="namedview272"
     pagecolor="#ffffff"
     bordercolor="#000000"
     borderopacity="0.25"
     inkscape:showpageshadow="2"
     inkscape:pageopacity="0.0"
     inkscape:pagecheckerboard="0"
     inkscape:deskcolor="#d1d1d1"
     showgrid="false"
     inkscape:zoom="0.94188035"
     inkscape:cx="205.44011"
     inkscape:cy="239.94555"
     inkscape:window-width="1366"
     inkscape:window-height="705"
     inkscape:window-x="-8"
     inkscape:window-y="-8"
     inkscape:window-maximized="1"
     inkscape:current-layer="svg270" />
  <path
     fill="#2970da"
     d="m 259.53,69.2 q -4.95,3.89 -6.27,5.05 -7.32,6.43 -10.28,15.29 c -1.37,4.1 -2.6,8.65 -2.15,13.03 q 0.61,5.82 2.29,12.1 0.21,0.81 -0.27,1.49 l -11.26,15.92 q -46.15,-26.35 -92.1,-52.59 -0.47,-0.27 -1.5,-1.57 l -0.05,-77.4 q 0,-0.78 0.67,-0.39 z"
     id="path164" />
  <path
     fill="#6ab2e4"
     d="m 521.09,123.24 -32.5,84.41 q -0.53,1.37 -1.05,0 L 441.81,88.82 A 0.65,0.65 0 0 0 441.2,88.4 l -49.53,0.04 a 0.84,0.85 2.6 0 0 -0.84,0.77 l -4.85,51.55 -47.47,-26.28 q -2.13,-5.07 -5.18,-11.05 -7.18,-14.07 -18.51,-25.04 -4.08,-3.95 -9.97,-7.15 l 0.04,-70.81 a 0.38,0.37 14.7 0 1 0.56,-0.32 z"
     id="path166" />
  <path
     fill="#205283"
     d="m 137.99,77.92 q 1.03,1.3 1.5,1.57 45.95,26.24 92.1,52.59 -15.4,24.38 -25.07,51.58 c -3.36,9.45 -5.92,19.79 -8.54,29.67 q -0.83,3.12 -1.22,6.45 -2.03,17.09 -1.8,33.63 0.05,3.76 0.49,7.72 0.48,4.36 0.88,7.84 L 137.92,302.47 0.86,380.52 A 0.58,0.58 0 0 1 0,380.02 V 1.22 Q 0,-0.2 1.23,0.51 69.6,39.63 136.77,77.93 q 0.62,0.36 1.22,-0.01 z m -18.51,108.9 q -1.22,-0.31 -0.1,-0.9 21.84,-11.56 24.6,-36.75 C 145.65,133.98 142.85,115.7 131.45,104.94 119.26,93.43 101.24,88.76 84.74,88.58 Q 51.98,88.21 15.29,88.45 A 0.29,0.29 0 0 0 15,88.74 v 208.68 a 0.35,0.35 0 0 0 0.35,0.35 q 39.16,-0.03 78.05,0.02 c 8.43,0.01 17,-0.96 25.13,-2.94 24.56,-5.98 42.03,-23.99 44.17,-49.78 q 1.27,-15.24 -3.48,-28.42 c -4.6,-12.75 -14.56,-21.38 -27.01,-26.34 -4.11,-1.63 -8.52,-2.39 -12.73,-3.49 z"
     id="path168" />
  <path
     fill="#ffffff"
     d="m 304.85,71.24 q 5.89,3.2 9.97,7.15 11.33,10.97 18.51,25.04 3.05,5.98 5.18,11.05 6.22,15.08 6.62,25.23 0.15,3.98 0.44,6.69 0.61,5.71 0.65,6.65 0.23,6.19 0.22,12.4 c 0,3.33 -3.27,5.69 -2.05,8.64 0.94,2.27 0.24,4.95 -0.76,7.05 q -0.3,0.63 0.01,1.26 c 0.68,1.34 0.61,2.76 -0.11,4.07 q -1.84,3.35 -2.68,7.24 -1.21,5.55 -2.12,11.07 -0.3,1.83 -1.17,3.3 -1.28,2.16 -1.52,5.1 -0.12,1.52 -1.37,2.22 a 0.65,0.65 0 0 1 -0.95,-0.75 q 3.22,-11.39 5.43,-22.48 c 0.78,-3.93 0.87,-7.99 1.65,-11.91 0.58,-2.91 0.5,-5.85 0.44,-8.82 -0.05,-2.23 0.73,-4.27 1.12,-6.44 q 0.48,-2.7 -0.64,-5.73 -0.15,-0.41 -0.51,-0.62 -0.47,-0.28 -0.91,0.02 -0.36,0.24 -0.38,0.67 c -0.06,1.64 -0.05,3.9 -0.88,5.32 -0.79,1.35 -1.35,2.53 -1.02,4.18 0.46,2.38 0.71,4.63 0.19,7.05 q -1.4,6.5 -2.01,12.36 -0.44,4.32 -1.7,7.9 -1.38,3.91 -2.14,7.48 -0.84,3.93 -2.01,7.53 c -1.12,3.42 -1.58,6.92 -3.15,10.22 q -4.21,8.85 -7.82,17.61 c -1.21,2.95 -2.98,5.49 -4.66,8.2 -2.61,4.23 -3.98,8.87 -7.24,12.82 q -1.44,1.76 0.78,1.31 c 1.64,-0.33 3.14,-1.99 4.01,-3.4 q 4.89,-7.96 9.9,-15.96 c 1.43,-2.28 1.36,-4.81 2.98,-7.16 q 3.15,-4.58 4.93,-10.81 0.7,-2.48 2.21,-4.89 0.32,-0.5 0.79,-0.14 1.51,1.16 3.28,1.46 0.74,0.12 0.51,0.84 -0.85,2.73 -3.63,2.73 a 0.93,0.94 17 0 0 -0.78,0.42 q -1.64,2.48 -2.31,5.2 a 0.85,0.86 18.2 0 0 0.5,1 q 1.75,0.71 1.32,2.87 a 1.38,1.38 0 0 1 -0.78,1 l -2.69,1.24 a 1.69,1.69 0 0 0 -0.88,2.13 l 0.97,2.62 a 1.29,1.29 0 0 1 -1.13,1.73 l -2.12,0.13 q -0.51,0.03 -0.78,0.45 -0.32,0.5 -0.18,1.09 a 1.02,1.02 0 0 0 0.78,0.78 l 1.48,0.32 a 0.77,0.77 0 0 1 0.45,1.22 c -1.01,1.31 -1.91,2.58 -2.43,4.17 q -1.38,4.18 -4.44,7.57 -0.42,0.46 -0.98,0.24 a 0.73,0.73 0 0 1 -0.33,-1.08 q 0.37,-0.55 0.34,-0.91 -0.26,-2.97 -1.8,-0.42 -0.94,1.54 0.53,2.42 0.44,0.26 0.45,0.77 0.09,3.99 -2.11,6.31 c -0.99,1.04 -1.9,2.01 -1.87,3.56 0.06,2.99 -2.09,4.14 -3.55,6.32 q -3.55,5.28 -7.63,10.29 -1.03,2.43 -2.12,2.96 -2.64,1.25 -3.89,3.12 -4.64,6.88 -11.61,13.24 c -3.14,2.87 -6.86,4.59 -10.05,7.27 q -1.8,1.51 -3.98,2.47 c -2.34,1.02 -3.78,3.14 -6.16,4.34 q -3.07,1.56 -6.02,3.06 -3.64,1.87 -9.19,2.89 -4.72,0.87 -13.85,0.06 -3.79,-2.13 -7.5,-3.94 -4.16,-2.03 -6.71,-4.26 -14.26,-12.46 -20.92,-30.4 -2.83,-7.63 -4.94,-17.27 -0.4,-3.48 -0.88,-7.84 -0.44,-3.96 -0.49,-7.72 -0.23,-16.54 1.8,-33.63 0.39,-3.33 1.22,-6.45 c 2.62,-9.88 5.18,-20.22 8.54,-29.67 q 9.67,-27.2 25.07,-51.58 l 11.26,-15.92 q 0.48,-0.68 0.27,-1.49 -1.68,-6.28 -2.29,-12.1 c -0.45,-4.38 0.78,-8.93 2.15,-13.03 q 2.96,-8.86 10.28,-15.29 1.32,-1.16 6.27,-5.05 1.64,-1.08 3.76,-3.43 1.65,-1.82 5.46,-3 c 6.48,-2.02 13.37,-2.11 19.72,0.36 2.86,1.11 5.77,1.66 8.51,3.16 q 3.79,2.09 7.87,4.95 z m -18.53,13.67 q -4.65,4.97 -9.73,9.71 -6.25,5.85 -9.87,10.02 -7.3,8.41 -13.05,15.23 c -3.72,4.41 6.44,10.19 9.34,11.46 0.64,0.28 0.94,1 0.86,1.66 a 0.54,0.54 0 0 1 -0.58,0.46 c -5.65,-0.52 -8.58,-2.27 -12.5,-5.54 a 2.34,2.34 0 0 0 -3.41,0.45 l -6.4,9.09 q -3.4,4.13 -5.6,9.14 c -1.2,2.72 -3.48,5.04 -4.44,7.11 -4.69,10.13 -10.17,20.75 -13.63,30.6 q -2.6,7.44 -5.18,14.98 c -2.3,6.72 -3.03,13.29 -4.66,19.98 -0.94,3.84 -1.02,7.76 -1.74,11.65 -0.72,3.79 -0.28,7.58 -1.35,11.33 -0.59,2.03 0.82,4.65 0.85,6.87 q 0.1,7.28 -0.26,15.1 1.06,13.28 6.71,26.55 2.45,5.77 5.81,11.2 c 3.85,6.22 10.66,13.54 18.78,13.52 15.81,-0.05 30.81,-10.89 41.3,-22.32 q 4.32,-4.71 8.62,-8.56 c 2.25,-2.03 3.52,-4.91 5.76,-7.1 q 3.42,-3.34 5.86,-6.84 5.73,-8.22 11.44,-17.6 c 2.27,-3.73 3.43,-8.14 5.9,-12 q 2.6,-4.08 4.6,-8.78 3.32,-7.79 6.26,-15.54 1.94,-5.12 3.54,-12.6 1.35,-6.35 2.78,-12.67 l 0.32,-1.63 q 0.98,-4.37 1.92,-9.43 0.47,-2.53 0.42,-4.91 c -0.05,-2.6 -0.39,-5.49 0.31,-7.99 q 0.43,-1.54 0.77,-3.18 c 0.33,-1.55 -0.22,-2.76 -0.54,-4.23 q -0.33,-1.53 -0.27,-3.26 0.46,-12.93 -4.13,-26.81 -5.12,-15.51 -11.2,-27.07 -2.66,-6.32 -6.56,-12.39 -3.79,-5.91 -8.34,-9.9 -5.13,-5.62 -10.26,-7.81 c -2.07,-0.88 -5.51,-0.28 -7.56,0.98 q -2.28,1.41 -4.95,1.73 -1.72,0.2 -0.2,1.03 c 2.33,1.27 3.4,1.5 4.76,4.27 q 1.35,2.71 -0.5,4.04 z m -17.19,-4.9 c -9.45,5.67 -17.72,13.69 -19.99,25.04 q -0.3,1.49 0.77,0.41 9.8,-9.85 18.55,-20.8 c 1.81,-2.26 4.17,-3.8 6.45,-5.5 q 0.84,-0.63 -0.21,-0.66 -2.94,-0.07 -5.57,1.51 z m -28.5467,47.741 a 0.81,2.14 23.6 0 0 1.599,-1.6367 0.81,2.14 23.6 0 0 0.1144,-2.2853 0.81,2.14 23.6 0 0 -1.599,1.6367 0.81,2.14 23.6 0 0 -0.1144,2.2853 z m 97.5867,21.109 1.32,-0.2 a 0.2,0.2 0 0 0 0.17,-0.23 l -0.03,-0.19 a 15.67,0.7 81.4 0 0 -3.03,-15.39 l -0.34,0.06 a 15.67,0.7 81.4 0 0 1.65,15.59 l 0.03,0.19 a 0.2,0.2 0 0 0 0.23,0.17 z m -126.52,36.56 q 0.12,-0.3 0.1,-0.63 -0.05,-0.62 -0.32,-0.06 -0.6,1.22 -1.03,2.47 -0.3,0.88 0.43,0.3 0.71,-0.58 0.73,-1.66 0.01,-0.22 0.09,-0.42 z m 101.53,78.1 q -4.32,1.37 -6.26,5.72 -0.23,0.52 -0.76,0.73 -3.53,1.42 -5.17,5.28 -0.23,0.52 0.22,0.87 l 1.79,1.4 a 0.8,0.8 0 0 0 1.12,-0.13 c 3.53,-4.37 7.82,-8.2 9.06,-13.87 q 3.1,-1.26 3.62,-4.15 a 0.45,0.46 81.1 0 0 -0.66,-0.48 q -2.78,1.43 -2.96,4.63 z m -26.456,31.4373 a 1.02,3.44 54.6 0 0 -3.3949,1.1613 1.02,3.44 54.6 0 0 -2.2131,2.8241 1.02,3.44 54.6 0 0 3.3949,-1.1613 1.02,3.44 54.6 0 0 2.2131,-2.8241 z m -3.7148,6.5314 a 1.1,2.98 51.1 0 0 -3.01,1.0152 1.1,2.98 51.1 0 0 -1.6284,2.7274 1.1,2.98 51.1 0 0 3.01,-1.0152 1.1,2.98 51.1 0 0 1.6284,-2.7274 z m -7.3376,5.5868 a 0.88,1.81 57.8 0 0 -2.0005,0.2199 0.88,1.81 57.8 0 0 -1.0627,1.7091 0.88,1.81 57.8 0 0 2.0005,-0.2199 0.88,1.81 57.8 0 0 1.0627,-1.7091 z"
     id="path170"
     style="stroke:url(#linearGradient5019)" />
  <path
     fill="#2970da"
     d="m 269.13,80.01 q 2.63,-1.58 5.57,-1.51 1.05,0.03 0.21,0.66 c -2.28,1.7 -4.64,3.24 -6.45,5.5 q -8.75,10.95 -18.55,20.8 -1.07,1.08 -0.77,-0.41 c 2.27,-11.35 10.54,-19.37 19.99,-25.04 z"
     id="path174" />
  <path
     fill="#6ab2e4"
     d="m 305.03,80.67 q 4.55,3.99 8.34,9.9 3.9,6.07 6.56,12.39 -8.06,-3.43 -14.95,-7.88 z"
     id="path176" />
  <path
     fill="#2970da"
     d="m 286.32,84.91 q 0.59,0.36 1.36,0.55 0.82,0.21 1.32,0.5 8.02,4.73 15.98,9.12 6.89,4.45 14.95,7.88 6.08,11.56 11.2,27.07 4.59,13.88 4.13,26.81 -0.06,1.73 0.27,3.26 c 0.32,1.47 0.87,2.68 0.54,4.23 q -0.34,1.64 -0.77,3.18 c -0.7,2.5 -0.36,5.39 -0.31,7.99 q 0.05,2.38 -0.42,4.91 -0.94,5.06 -1.92,9.43 l -91.67,-52.39 6.4,-9.09 a 2.34,2.34 0 0 1 3.41,-0.45 c 3.92,3.27 6.85,5.02 12.5,5.54 a 0.54,0.54 0 0 0 0.58,-0.46 c 0.08,-0.66 -0.22,-1.38 -0.86,-1.66 -2.9,-1.27 -13.06,-7.05 -9.34,-11.46 q 5.75,-6.82 13.05,-15.23 3.62,-4.17 9.87,-10.02 5.08,-4.74 9.73,-9.71 z"
     id="path178" />
  <path
     fill="#ffffff"
     d="m 119.48,186.82 c 4.21,1.1 8.62,1.86 12.73,3.49 12.45,4.96 22.41,13.59 27.01,26.34 q 4.75,13.18 3.48,28.42 c -2.14,25.79 -19.61,43.8 -44.17,49.78 -8.13,1.98 -16.7,2.95 -25.13,2.94 Q 54.51,297.74 15.35,297.77 A 0.35,0.35 0 0 1 15,297.42 V 88.74 a 0.29,0.29 0 0 1 0.29,-0.29 q 36.69,-0.24 69.45,0.13 c 16.5,0.18 34.52,4.85 46.71,16.36 11.4,10.76 14.2,29.04 12.53,44.23 q -2.76,25.19 -24.6,36.75 -1.12,0.59 0.1,0.9 z m -56.83,-61.21 0.16,44.22 a 0.21,0.21 0 0 0 0.21,0.21 L 73.35,170 a 20.37,24.88 89.8 0 0 24.81,-20.45 l -0.02,-3.9 A 20.37,24.88 89.8 0 0 73.19,125.37 l -10.33,0.03 a 0.21,0.21 0 0 0 -0.21,0.21 z m 0.22,86.42 -0.26,48.26 a 0.4,0.4 0 0 0 0.4,0.4 l 21.69,0.11 a 27.79,22.14 0.3 0 0 27.91,-21.99 l 0.02,-4.78 A 27.79,22.14 0.3 0 0 84.96,211.75 l -21.69,-0.12 a 0.4,0.4 0 0 0 -0.4,0.4 z"
     id="path180" />
  <path
     fill="#ffffff"
     d="m 521.09,123.24 13.24,-34.25 q 0.22,-0.58 0.85,-0.58 l 49.55,0.01 a 0.65,0.64 87 0 1 0.64,0.58 l 6.75,74.88 4.47,50.09 7.45,83.44 q 0.03,0.36 -0.33,0.36 h -46.74 q -0.63,0 -0.68,-0.62 l -4.56,-57.23 -5.24,-65.55 a 0.82,0.82 0 0 0 -0.73,-0.74 q -0.36,-0.04 -0.55,0.47 -15.17,42.88 -30.28,86.66 l -12.43,35.33 a 0.83,0.82 9.4 0 1 -0.78,0.55 l -27.18,-0.03 q -0.7,0 -0.93,-0.67 l -3.25,-9.48 -27.9,-79.81 q -5.63,-16.33 -11.15,-32.18 -0.29,-0.84 -0.93,-0.85 a 0.6,0.59 2 0 0 -0.6,0.55 l -3.38,41.85 -6.42,81.07 a 0.7,0.71 2.2 0 1 -0.7,0.66 l -46.53,-0.01 q -0.6,0 -0.55,-0.59 l 4.62,-51.94 9.16,-104.45 4.85,-51.55 a 0.84,0.85 2.6 0 1 0.84,-0.77 L 441.2,88.4 a 0.65,0.65 0 0 1 0.61,0.42 l 45.73,118.83 q 0.52,1.37 1.05,0 z"
     id="path182" />
  <path
     fill="#2970da"
     d="m 385.98,140.76 -9.16,104.45 q -1.42,0.16 -2.25,0.64 -31.78,18.11 -63.5,36.33 -0.09,0.05 -3.14,1.54 -2.18,1.06 -3.05,2.57 -0.09,-0.55 -1.61,-0.86 4.08,-5.01 7.63,-10.29 c 1.46,-2.18 3.61,-3.33 3.55,-6.32 -0.03,-1.55 0.88,-2.52 1.87,-3.56 q 2.2,-2.32 2.11,-6.31 -0.01,-0.51 -0.45,-0.77 -1.47,-0.88 -0.53,-2.42 1.54,-2.55 1.8,0.42 0.03,0.36 -0.34,0.91 a 0.73,0.73 0 0 0 0.33,1.08 q 0.56,0.22 0.98,-0.24 3.06,-3.39 4.44,-7.57 c 0.52,-1.59 1.42,-2.86 2.43,-4.17 a 0.77,0.77 0 0 0 -0.45,-1.22 l -1.48,-0.32 a 1.02,1.02 0 0 1 -0.78,-0.78 q -0.14,-0.59 0.18,-1.09 0.27,-0.42 0.78,-0.45 l 2.12,-0.13 a 1.29,1.29 0 0 0 1.13,-1.73 l -0.97,-2.62 a 1.69,1.69 0 0 1 0.88,-2.13 l 2.69,-1.24 a 1.38,1.38 0 0 0 0.78,-1 q 0.43,-2.16 -1.32,-2.87 a 0.85,0.86 18.2 0 1 -0.5,-1 q 0.67,-2.72 2.31,-5.2 a 0.93,0.94 17 0 1 0.78,-0.42 q 2.78,0 3.63,-2.73 0.23,-0.72 -0.51,-0.84 -1.77,-0.3 -3.28,-1.46 -0.47,-0.36 -0.79,0.14 -1.51,2.41 -2.21,4.89 -1.78,6.23 -4.93,10.81 c -1.62,2.35 -1.55,4.88 -2.98,7.16 q -5.01,8 -9.9,15.96 c -0.87,1.41 -2.37,3.07 -4.01,3.4 q -2.22,0.45 -0.78,-1.31 c 3.26,-3.95 4.63,-8.59 7.24,-12.82 1.68,-2.71 3.45,-5.25 4.66,-8.2 q 3.61,-8.76 7.82,-17.61 c 1.57,-3.3 2.03,-6.8 3.15,-10.22 q 1.17,-3.6 2.01,-7.53 0.76,-3.57 2.14,-7.48 1.26,-3.58 1.7,-7.9 0.61,-5.86 2.01,-12.36 c 0.52,-2.42 0.27,-4.67 -0.19,-7.05 -0.33,-1.65 0.23,-2.83 1.02,-4.18 0.83,-1.42 0.82,-3.68 0.88,-5.32 q 0.02,-0.43 0.38,-0.67 0.44,-0.3 0.91,-0.02 0.36,0.21 0.51,0.62 1.12,3.03 0.64,5.73 c -0.39,2.17 -1.17,4.21 -1.12,6.44 0.06,2.97 0.14,5.91 -0.44,8.82 -0.78,3.92 -0.87,7.98 -1.65,11.91 q -2.21,11.09 -5.43,22.48 a 0.65,0.65 0 0 0 0.95,0.75 q 1.25,-0.7 1.37,-2.22 0.24,-2.94 1.52,-5.1 0.87,-1.47 1.17,-3.3 0.91,-5.52 2.12,-11.07 0.84,-3.89 2.68,-7.24 c 0.72,-1.31 0.79,-2.73 0.11,-4.07 q -0.31,-0.63 -0.01,-1.26 c 1,-2.1 1.7,-4.78 0.76,-7.05 -1.22,-2.95 2.05,-5.31 2.05,-8.64 q 0.01,-6.21 -0.22,-12.4 -0.04,-0.94 -0.65,-6.65 -0.29,-2.71 -0.44,-6.69 -0.4,-10.15 -6.62,-25.23 z"
     id="path184" />
  <ellipse
     fill="#2970da"
     cx="18.609005"
     cy="-271.60654"
     transform="rotate(113.6)"
     rx="2.1400001"
     ry="0.81"
     id="ellipse186" />
  <path
     fill="#205283"
     d="m 62.65,125.61 a 0.21,0.21 0 0 1 0.21,-0.21 l 10.33,-0.03 a 20.37,24.88 89.8 0 1 24.95,20.28 l 0.02,3.9 A 20.37,24.88 89.8 0 1 73.35,170 l -10.33,0.04 a 0.21,0.21 0 0 1 -0.21,-0.21 z"
     id="path188" />
  <path
     fill="#2970da"
     d="m 338.17,148.86 a 0.2,0.2 0 0 1 -0.23,-0.17 l -0.03,-0.19 a 15.67,0.7 81.4 0 1 -1.65,-15.59 l 0.34,-0.06 a 15.67,0.7 81.4 0 1 3.03,15.39 l 0.03,0.19 a 0.2,0.2 0 0 1 -0.17,0.23 z"
     id="path190" />
  <path
     fill="#205283"
     d="m 240.98,137.45 91.67,52.39 -0.32,1.63 -126.15,71.66 a 0.15,0.15 0 0 0 0.02,0.27 q 0.55,0.22 -1.23,0.81 0.36,-7.82 0.26,-15.1 c -0.03,-2.22 -1.44,-4.84 -0.85,-6.87 1.07,-3.75 0.63,-7.54 1.35,-11.33 0.72,-3.89 0.8,-7.81 1.74,-11.65 1.63,-6.69 2.36,-13.26 4.66,-19.98 q 2.58,-7.54 5.18,-14.98 c 3.46,-9.85 8.94,-20.47 13.63,-30.6 0.96,-2.07 3.24,-4.39 4.44,-7.11 q 2.2,-5.01 5.6,-9.14 z"
     id="path192" />
  <path
     fill="#6ab2e4"
     d="m 592.12,163.88 45.85,26.17 q 0.44,0.26 0,0.51 l -41.38,23.41 z"
     id="path194" />
  <path
     fill="#2970da"
     d="m 442.46,206.65 -16.06,9.37 3.38,-41.85 a 0.6,0.59 2 0 1 0.6,-0.55 q 0.64,0.01 0.93,0.85 5.52,15.85 11.15,32.18 z"
     id="path196" />
  <path
     fill="#6ab2e4"
     d="m 551.73,239.92 -36.8,20.84 q 15.11,-43.78 30.28,-86.66 0.19,-0.51 0.55,-0.47 a 0.82,0.82 0 0 1 0.73,0.74 z"
     id="path198" />
  <path
     fill="#205283"
     d="m 211.56,185.84 q -0.02,1.08 -0.73,1.66 -0.73,0.58 -0.43,-0.3 0.43,-1.25 1.03,-2.47 0.27,-0.56 0.32,0.06 0.02,0.33 -0.1,0.63 -0.08,0.2 -0.09,0.42 z"
     id="path200" />
  <path
     fill="#2970da"
     d="m 332.33,191.47 q -1.43,6.32 -2.78,12.67 -1.6,7.48 -3.54,12.6 -2.94,7.75 -6.26,15.54 -2,4.7 -4.6,8.78 c -2.47,3.86 -3.63,8.27 -5.9,12 q -5.71,9.38 -11.44,17.6 -2.44,3.5 -5.86,6.84 c -2.24,2.19 -3.51,5.07 -5.76,7.1 q -4.3,3.85 -8.62,8.56 c -10.49,11.43 -25.49,22.27 -41.3,22.32 -8.12,0.02 -14.93,-7.3 -18.78,-13.52 q -3.36,-5.43 -5.81,-11.2 -5.65,-13.27 -6.71,-26.55 1.78,-0.59 1.23,-0.81 a 0.15,0.15 0 0 1 -0.02,-0.27 z"
     id="path202" />
  <path
     fill="#6ab2e4"
     d="m 442.46,206.65 27.9,79.81 -165.08,94.4 a 0.27,0.27 0 0 1 -0.4,-0.23 v -94.34 q 0.87,-1.51 3.05,-2.57 3.05,-1.49 3.14,-1.54 31.72,-18.22 63.5,-36.33 0.83,-0.48 2.25,-0.64 l -4.62,51.94 q -0.05,0.59 0.55,0.59 l 46.53,0.01 a 0.7,0.71 2.2 0 0 0.7,-0.66 l 6.42,-81.07 z"
     id="path204" />
  <path
     fill="#205283"
     d="m 62.87,212.03 a 0.4,0.4 0 0 1 0.4,-0.4 l 21.69,0.12 a 27.79,22.14 0.3 0 1 27.67,22.28 l -0.02,4.78 A 27.79,22.14 0.3 0 1 84.7,260.8 l -21.69,-0.11 a 0.4,0.4 0 0 1 -0.4,-0.4 z"
     id="path206" />
  <path
     fill="#2970da"
     d="m 313.18,263.52 q 0.18,-3.2 2.96,-4.63 a 0.45,0.46 81.1 0 1 0.66,0.48 q -0.52,2.89 -3.62,4.15 z"
     id="path208" />
  <path
     fill="#2970da"
     d="m 313.18,263.52 c -1.24,5.67 -5.53,9.5 -9.06,13.87 a 0.8,0.8 0 0 1 -1.12,0.13 l -1.79,-1.4 q -0.45,-0.35 -0.22,-0.87 1.64,-3.86 5.17,-5.28 0.53,-0.21 0.76,-0.73 1.94,-4.35 6.26,-5.72 z"
     id="path210" />
  <path
     fill="#2970da"
     d="m 196.33,268.97 q 2.11,9.64 4.94,17.27 6.66,17.94 20.92,30.4 2.55,2.23 6.71,4.26 3.71,1.81 7.5,3.94 l -97.85,55.95 a 0.42,0.42 0 0 1 -0.63,-0.36 v -77.96 z"
     id="path212" />
  <ellipse
     fill="#205283"
     cx="59.41354"
     cy="406.5217"
     transform="rotate(-35.4)"
     rx="3.4400001"
     ry="1.02"
     id="ellipse214" />
  <path
     style="fill:#2970da;fill-opacity:1;stroke:#000000;stroke-width:0"
     d="m 278.62528,305.33831 c -0.62184,-0.20009 -0.2509,-1.1998 0.84636,-2.28099 0.5945,-0.58579 1.2214,-1.03936 1.87031,-1.35319 0.44577,-0.2156 0.755,-0.31389 1.06453,-0.33837 0.41896,-0.0331 0.61094,0.0878 0.63693,0.40126 0.0806,0.97163 -1.9101,2.92551 -3.53539,3.47003 -0.32155,0.10773 -0.72043,0.15349 -0.88274,0.10126 z"
     id="path1458" />
  <path
     style="fill:#2970da;fill-opacity:1;stroke:#000000;stroke-width:0"
     d="m 281.34012,299.06435 c -0.5302,-0.15409 -0.23542,-0.91052 0.72674,-1.86486 0.98239,-0.97439 2.35106,-1.858 3.46888,-2.23949 0.31206,-0.1065 0.3902,-0.12021 0.69429,-0.12181 l 0.34266,-0.002 0.097,0.10835 c 0.11832,0.13223 0.12514,0.26172 0.0275,0.52257 -0.11231,0.30019 -0.38219,0.66737 -0.82568,1.1234 -1.41103,1.4509 -3.71774,2.71012 -4.53139,2.47365 z"
     id="path1460" />
  <path
     style="fill:#ffffff;fill-opacity:1;stroke:#000000;stroke-width:0;stroke-opacity:0.986487"
     d="m 201.64218,286.93319 c -0.65362,-1.6371 -2.53754,-7.48195 -3.26812,-10.13931 -1.47407,-5.36162 -1.95074,-7.77834 -2.57284,-13.04406 l -0.60372,-5.11013 0.001,-9.9473 c 7.3e-4,-6.21702 0.0917,-11.21418 0.2425,-13.32562 0.59488,-8.32739 1.32579,-15.61593 1.84449,-18.39312 0.51225,-2.74264 3.59564,-14.5252 5.79562,-22.14682 5.07961,-17.59772 13.14923,-36.2773 23.27005,-53.86555 2.98505,-5.18751 5.01003,-8.35747 8.48247,-13.27871 l 3.27766,-4.6452 h 7.39502 7.39503 l 0.48543,0.95795 c 0.99303,1.95965 4.80654,5.05281 8.55008,6.93503 1.46968,0.73894 1.85653,1.12655 1.85653,1.86019 0,0.58932 -0.39419,0.64158 -2.34869,0.31137 -3.48675,-0.58908 -5.78954,-1.63088 -9.05874,-4.09824 -1.94948,-1.47134 -2.27159,-1.64955 -2.98149,-1.64955 -0.43774,0 -1.00926,0.0972 -1.27005,0.21604 -0.28906,0.13171 -1.66529,1.90842 -3.52546,4.55136 -1.67822,2.38443 -3.56373,5.01098 -4.19003,5.8368 -1.96104,2.58573 -2.7263,3.82096 -4.58786,7.40537 -0.99413,1.9142 -2.41788,4.34144 -3.16388,5.39389 -1.04377,1.47252 -2.00888,3.28926 -4.18761,7.88276 -8.36811,17.64282 -9.12379,19.44509 -13.74898,32.79079 -3.88484,11.20944 -4.08284,11.91533 -6.01194,21.43344 -0.56266,2.77613 -1.20039,5.80674 -1.41719,6.7347 -0.21679,0.92796 -0.60131,3.33502 -0.85449,5.34902 -0.25318,2.014 -0.58867,4.48443 -0.74555,5.48983 -0.15687,1.00541 -0.41073,3.4547 -0.56412,5.44287 -0.15339,1.98816 -0.46017,4.50237 -0.68173,5.58711 l -0.40283,1.97227 0.43142,2.06296 c 0.69992,3.34689 0.76861,4.80423 0.57296,12.15647 -0.1555,5.84334 -0.13961,7.28373 0.10354,9.38424 0.63065,5.44805 1.85439,10.86573 3.75544,16.6259 0.65968,1.99879 1.19941,3.66684 1.19941,3.70678 0,0.0399 -1.86017,0.0726 -4.13371,0.0726 h -4.13372 z m 9.12198,-99.26112 c 0.45385,-0.17416 0.79773,-0.97116 0.95209,-2.20659 0.10422,-0.83418 0.0819,-1.08421 -0.0916,-1.02637 -0.26928,0.0898 -1.32129,2.47259 -1.32129,2.99275 0,0.39503 0.0243,0.4077 0.46081,0.24021 z m 30.48552,-60.06113 c 0.60799,-0.42585 1.33144,-2.06688 1.33364,-3.02517 0.002,-0.72179 -0.0419,-0.79766 -0.45783,-0.79766 -0.9649,0 -2.30093,2.8038 -1.7905,3.75755 0.24131,0.45087 0.35281,0.45883 0.91469,0.0653 z"
     id="path1671" />
</svg>
